<!-- <svg xmlns="http://www.w3.org/2000/svg" version="1.1" xmlns:xlink="http://www.w3.org/1999/xlink" xmlns:svgjs="http://svgjs.com/svgjs" width="1440" height="560" preserveAspectRatio="none" viewBox="0 0 1440 560">
    <g mask="url(&quot;#SvgjsMask1033&quot;)" fill="none">
        <path d="M245.95 32.26 a123.62 123.62 0 1 0 247.24 0 a123.62 123.62 0 1 0 -247.24 0z" fill="rgba(28, 83, 142, 0.4)" class="triangle-float3"></path>
        <path d="M931.64 328.04 a127.09 127.09 0 1 0 254.18 0 a127.09 127.09 0 1 0 -254.18 0z" fill="rgba(28, 83, 142, 0.4)" class="triangle-float2"></path>
        <path d="M-56.16 206.27 a142.1 142.1 0 1 0 284.2 0 a142.1 142.1 0 1 0 -284.2 0z" fill="rgba(28, 83, 142, 0.4)" class="triangle-float1"></path>
        <path d="M758.69 210.36 a147.89 147.89 0 1 0 295.78 0 a147.89 147.89 0 1 0 -295.78 0z" fill="rgba(28, 83, 142, 0.4)" class="triangle-float2"></path>
        <path d="M188.73 424.46 a184.87 184.87 0 1 0 369.74 0 a184.87 184.87 0 1 0 -369.74 0z" fill="rgba(28, 83, 142, 0.4)" class="triangle-float1"></path>
        <path d="M1079.25 246.47 a122.33 122.33 0 1 0 244.66 0 a122.33 122.33 0 1 0 -244.66 0z" fill="rgba(28, 83, 142, 0.4)" class="triangle-float1"></path>
    </g>
    <defs>
        <mask id="SvgjsMask1033">
            <rect width="1440" height="560" fill="#ffffff"></rect>
        </mask>
        <style>
            @keyframes float1 {
                0%{transform: translate(0, 0)}
                50%{transform: translate(-10px, 0)}
                100%{transform: translate(0, 0)}
            }

            .triangle-float1 {
                animation: float1 5s infinite;
            }

            @keyframes float2 {
                0%{transform: translate(0, 0)}
                50%{transform: translate(-5px, -5px)}
                100%{transform: translate(0, 0)}
            }

            .triangle-float2 {
                animation: float2 4s infinite;
            }

            @keyframes float3 {
                0%{transform: translate(0, 0)}
                50%{transform: translate(0, -10px)}
                100%{transform: translate(0, 0)}
            }

            .triangle-float3 {
                animation: float3 6s infinite;
            }
        </style>
    </defs>
</svg> -->

<!-- <svg xmlns="http://www.w3.org/2000/svg" version="1.1" xmlns:xlink="http://www.w3.org/1999/xlink" xmlns:svgjs="http://svgjs.com/svgjs" width="1440" height="560" preserveAspectRatio="none" viewBox="0 0 1440 560">
    <g mask="url(&quot;#SvgjsMask1001&quot;)" fill="none">
        <path d="M106.12 278.53L171.08 316.03L171.08 391.03L106.12 428.53L41.17 391.03L41.17 316.03zM41.17 391.03L106.12 428.53L106.12 503.53L41.17 541.03L-23.78 503.53L-23.78 428.53zM236.03 53.53L300.99 91.03L300.99 166.03L236.03 203.53L171.08 166.03L171.08 91.03zM236.03 278.53L300.99 316.03L300.99 391.03L236.03 428.53L171.08 391.03L171.08 316.03zM171.08 391.03L236.03 428.53L236.03 503.53L171.08 541.03L106.12 503.53L106.12 428.53zM300.99 166.03L365.94 203.53L365.94 278.53L300.99 316.03L236.03 278.53L236.03 203.53zM365.94 278.53L430.89 316.03L430.89 391.03L365.94 428.53L300.99 391.03L300.99 316.03zM430.89 166.03L495.85 203.53L495.85 278.53L430.89 316.03L365.94 278.53L365.94 203.53zM755.66 53.53L820.62 91.03L820.62 166.03L755.66 203.53L690.71 166.03L690.71 91.03zM755.66 278.53L820.62 316.03L820.62 391.03L755.66 428.53L690.71 391.03L690.71 316.03zM690.71 391.03L755.66 428.53L755.66 503.53L690.71 541.03L625.75 503.53L625.75 428.53zM885.57 53.53L950.52 91.03L950.52 166.03L885.57 203.53L820.61 166.03L820.61 91.03zM820.61 166.03L885.57 203.53L885.57 278.53L820.61 316.03L755.66 278.53L755.66 203.53zM820.61 391.03L885.57 428.53L885.57 503.53L820.61 541.03L755.66 503.53L755.66 428.53zM1015.48 53.53L1080.43 91.03L1080.43 166.03L1015.48 203.53L950.52 166.03L950.52 91.03zM950.52 166.03L1015.48 203.53L1015.48 278.53L950.52 316.03L885.57 278.53L885.57 203.53zM950.52 391.03L1015.48 428.53L1015.48 503.53L950.52 541.03L885.57 503.53L885.57 428.53zM1015.48 503.53L1080.43 541.03L1080.43 616.03L1015.48 653.53L950.52 616.03L950.52 541.03zM1080.43 166.03L1145.38 203.53L1145.38 278.53L1080.43 316.03L1015.48 278.53L1015.48 203.53zM1275.29 53.53L1340.24 91.03L1340.24 166.03L1275.29 203.53L1210.34 166.03L1210.34 91.03zM1210.34 166.03L1275.29 203.53L1275.29 278.53L1210.34 316.03L1145.38 278.53L1145.38 203.53zM1340.25 -58.97L1405.2 -21.47L1405.2 53.53L1340.25 91.03L1275.29 53.53L1275.29 -21.47zM1340.25 391.03L1405.2 428.53L1405.2 503.53L1340.25 541.03L1275.29 503.53L1275.29 428.53z" stroke="rgba(0, 0, 0, 0)" stroke-width="2"></path>
        <path d="M98.62 278.53 a7.5 7.5 0 1 0 15 0 a7.5 7.5 0 1 0 -15 0zM163.58 316.03 a7.5 7.5 0 1 0 15 0 a7.5 7.5 0 1 0 -15 0zM163.58 391.03 a7.5 7.5 0 1 0 15 0 a7.5 7.5 0 1 0 -15 0zM98.62 428.53 a7.5 7.5 0 1 0 15 0 a7.5 7.5 0 1 0 -15 0zM33.67 391.03 a7.5 7.5 0 1 0 15 0 a7.5 7.5 0 1 0 -15 0zM33.67 316.03 a7.5 7.5 0 1 0 15 0 a7.5 7.5 0 1 0 -15 0zM98.62 503.53 a7.5 7.5 0 1 0 15 0 a7.5 7.5 0 1 0 -15 0zM33.67 541.03 a7.5 7.5 0 1 0 15 0 a7.5 7.5 0 1 0 -15 0zM-31.28 503.53 a7.5 7.5 0 1 0 15 0 a7.5 7.5 0 1 0 -15 0zM-31.28 428.53 a7.5 7.5 0 1 0 15 0 a7.5 7.5 0 1 0 -15 0zM228.53 53.53 a7.5 7.5 0 1 0 15 0 a7.5 7.5 0 1 0 -15 0zM293.49 91.03 a7.5 7.5 0 1 0 15 0 a7.5 7.5 0 1 0 -15 0zM293.49 166.03 a7.5 7.5 0 1 0 15 0 a7.5 7.5 0 1 0 -15 0zM228.53 203.53 a7.5 7.5 0 1 0 15 0 a7.5 7.5 0 1 0 -15 0zM163.58 166.03 a7.5 7.5 0 1 0 15 0 a7.5 7.5 0 1 0 -15 0zM163.58 91.03 a7.5 7.5 0 1 0 15 0 a7.5 7.5 0 1 0 -15 0zM228.53 278.53 a7.5 7.5 0 1 0 15 0 a7.5 7.5 0 1 0 -15 0zM293.49 316.03 a7.5 7.5 0 1 0 15 0 a7.5 7.5 0 1 0 -15 0zM293.49 391.03 a7.5 7.5 0 1 0 15 0 a7.5 7.5 0 1 0 -15 0zM228.53 428.53 a7.5 7.5 0 1 0 15 0 a7.5 7.5 0 1 0 -15 0zM228.53 503.53 a7.5 7.5 0 1 0 15 0 a7.5 7.5 0 1 0 -15 0zM163.58 541.03 a7.5 7.5 0 1 0 15 0 a7.5 7.5 0 1 0 -15 0zM358.44 203.53 a7.5 7.5 0 1 0 15 0 a7.5 7.5 0 1 0 -15 0zM358.44 278.53 a7.5 7.5 0 1 0 15 0 a7.5 7.5 0 1 0 -15 0zM423.39 316.03 a7.5 7.5 0 1 0 15 0 a7.5 7.5 0 1 0 -15 0zM423.39 391.03 a7.5 7.5 0 1 0 15 0 a7.5 7.5 0 1 0 -15 0zM358.44 428.53 a7.5 7.5 0 1 0 15 0 a7.5 7.5 0 1 0 -15 0zM423.39 166.03 a7.5 7.5 0 1 0 15 0 a7.5 7.5 0 1 0 -15 0zM488.35 203.53 a7.5 7.5 0 1 0 15 0 a7.5 7.5 0 1 0 -15 0zM488.35 278.53 a7.5 7.5 0 1 0 15 0 a7.5 7.5 0 1 0 -15 0zM748.16 53.53 a7.5 7.5 0 1 0 15 0 a7.5 7.5 0 1 0 -15 0zM813.12 91.03 a7.5 7.5 0 1 0 15 0 a7.5 7.5 0 1 0 -15 0zM813.12 166.03 a7.5 7.5 0 1 0 15 0 a7.5 7.5 0 1 0 -15 0zM748.16 203.53 a7.5 7.5 0 1 0 15 0 a7.5 7.5 0 1 0 -15 0zM683.21 166.03 a7.5 7.5 0 1 0 15 0 a7.5 7.5 0 1 0 -15 0zM683.21 91.03 a7.5 7.5 0 1 0 15 0 a7.5 7.5 0 1 0 -15 0zM748.16 278.53 a7.5 7.5 0 1 0 15 0 a7.5 7.5 0 1 0 -15 0zM813.12 316.03 a7.5 7.5 0 1 0 15 0 a7.5 7.5 0 1 0 -15 0zM813.12 391.03 a7.5 7.5 0 1 0 15 0 a7.5 7.5 0 1 0 -15 0zM748.16 428.53 a7.5 7.5 0 1 0 15 0 a7.5 7.5 0 1 0 -15 0zM683.21 391.03 a7.5 7.5 0 1 0 15 0 a7.5 7.5 0 1 0 -15 0zM683.21 316.03 a7.5 7.5 0 1 0 15 0 a7.5 7.5 0 1 0 -15 0zM748.16 503.53 a7.5 7.5 0 1 0 15 0 a7.5 7.5 0 1 0 -15 0zM683.21 541.03 a7.5 7.5 0 1 0 15 0 a7.5 7.5 0 1 0 -15 0zM618.25 503.53 a7.5 7.5 0 1 0 15 0 a7.5 7.5 0 1 0 -15 0zM618.25 428.53 a7.5 7.5 0 1 0 15 0 a7.5 7.5 0 1 0 -15 0zM878.07 53.53 a7.5 7.5 0 1 0 15 0 a7.5 7.5 0 1 0 -15 0zM943.02 91.03 a7.5 7.5 0 1 0 15 0 a7.5 7.5 0 1 0 -15 0zM943.02 166.03 a7.5 7.5 0 1 0 15 0 a7.5 7.5 0 1 0 -15 0zM878.07 203.53 a7.5 7.5 0 1 0 15 0 a7.5 7.5 0 1 0 -15 0zM813.11 166.03 a7.5 7.5 0 1 0 15 0 a7.5 7.5 0 1 0 -15 0zM813.11 91.03 a7.5 7.5 0 1 0 15 0 a7.5 7.5 0 1 0 -15 0zM878.07 278.53 a7.5 7.5 0 1 0 15 0 a7.5 7.5 0 1 0 -15 0zM813.11 316.03 a7.5 7.5 0 1 0 15 0 a7.5 7.5 0 1 0 -15 0zM813.11 391.03 a7.5 7.5 0 1 0 15 0 a7.5 7.5 0 1 0 -15 0zM878.07 428.53 a7.5 7.5 0 1 0 15 0 a7.5 7.5 0 1 0 -15 0zM878.07 503.53 a7.5 7.5 0 1 0 15 0 a7.5 7.5 0 1 0 -15 0zM813.11 541.03 a7.5 7.5 0 1 0 15 0 a7.5 7.5 0 1 0 -15 0zM1007.98 53.53 a7.5 7.5 0 1 0 15 0 a7.5 7.5 0 1 0 -15 0zM1072.93 91.03 a7.5 7.5 0 1 0 15 0 a7.5 7.5 0 1 0 -15 0zM1072.93 166.03 a7.5 7.5 0 1 0 15 0 a7.5 7.5 0 1 0 -15 0zM1007.98 203.53 a7.5 7.5 0 1 0 15 0 a7.5 7.5 0 1 0 -15 0zM1007.98 278.53 a7.5 7.5 0 1 0 15 0 a7.5 7.5 0 1 0 -15 0zM943.02 316.03 a7.5 7.5 0 1 0 15 0 a7.5 7.5 0 1 0 -15 0zM943.02 391.03 a7.5 7.5 0 1 0 15 0 a7.5 7.5 0 1 0 -15 0zM1007.98 428.53 a7.5 7.5 0 1 0 15 0 a7.5 7.5 0 1 0 -15 0zM1007.98 503.53 a7.5 7.5 0 1 0 15 0 a7.5 7.5 0 1 0 -15 0zM943.02 541.03 a7.5 7.5 0 1 0 15 0 a7.5 7.5 0 1 0 -15 0zM1072.93 541.03 a7.5 7.5 0 1 0 15 0 a7.5 7.5 0 1 0 -15 0zM1072.93 616.03 a7.5 7.5 0 1 0 15 0 a7.5 7.5 0 1 0 -15 0zM1007.98 653.53 a7.5 7.5 0 1 0 15 0 a7.5 7.5 0 1 0 -15 0zM943.02 616.03 a7.5 7.5 0 1 0 15 0 a7.5 7.5 0 1 0 -15 0zM1137.88 203.53 a7.5 7.5 0 1 0 15 0 a7.5 7.5 0 1 0 -15 0zM1137.88 278.53 a7.5 7.5 0 1 0 15 0 a7.5 7.5 0 1 0 -15 0zM1072.93 316.03 a7.5 7.5 0 1 0 15 0 a7.5 7.5 0 1 0 -15 0zM1267.79 53.53 a7.5 7.5 0 1 0 15 0 a7.5 7.5 0 1 0 -15 0zM1332.74 91.03 a7.5 7.5 0 1 0 15 0 a7.5 7.5 0 1 0 -15 0zM1332.74 166.03 a7.5 7.5 0 1 0 15 0 a7.5 7.5 0 1 0 -15 0zM1267.79 203.53 a7.5 7.5 0 1 0 15 0 a7.5 7.5 0 1 0 -15 0zM1202.84 166.03 a7.5 7.5 0 1 0 15 0 a7.5 7.5 0 1 0 -15 0zM1202.84 91.03 a7.5 7.5 0 1 0 15 0 a7.5 7.5 0 1 0 -15 0zM1267.79 278.53 a7.5 7.5 0 1 0 15 0 a7.5 7.5 0 1 0 -15 0zM1202.84 316.03 a7.5 7.5 0 1 0 15 0 a7.5 7.5 0 1 0 -15 0zM1332.75 -58.97 a7.5 7.5 0 1 0 15 0 a7.5 7.5 0 1 0 -15 0zM1397.7 -21.47 a7.5 7.5 0 1 0 15 0 a7.5 7.5 0 1 0 -15 0zM1397.7 53.53 a7.5 7.5 0 1 0 15 0 a7.5 7.5 0 1 0 -15 0zM1332.75 91.03 a7.5 7.5 0 1 0 15 0 a7.5 7.5 0 1 0 -15 0zM1267.79 -21.47 a7.5 7.5 0 1 0 15 0 a7.5 7.5 0 1 0 -15 0zM1332.75 391.03 a7.5 7.5 0 1 0 15 0 a7.5 7.5 0 1 0 -15 0zM1397.7 428.53 a7.5 7.5 0 1 0 15 0 a7.5 7.5 0 1 0 -15 0zM1397.7 503.53 a7.5 7.5 0 1 0 15 0 a7.5 7.5 0 1 0 -15 0zM1332.75 541.03 a7.5 7.5 0 1 0 15 0 a7.5 7.5 0 1 0 -15 0zM1267.79 503.53 a7.5 7.5 0 1 0 15 0 a7.5 7.5 0 1 0 -15 0zM1267.79 428.53 a7.5 7.5 0 1 0 15 0 a7.5 7.5 0 1 0 -15 0z" fill="rgba(0, 0, 0, 0)"></path>
        <path d="M47.63 60.18L90.94 85.18L90.94 135.18L47.63 160.18L4.33 135.18L4.33 85.18zM4.33 435.18L47.63 460.18L47.63 510.18L4.33 535.18L-38.97 510.18L-38.97 460.18zM47.63 510.18L90.94 535.18L90.94 585.18L47.63 610.18L4.33 585.18L4.33 535.18zM134.24 60.18L177.54 85.18L177.54 135.18L134.24 160.18L90.94 135.18L90.94 85.18zM220.84 60.18L264.14 85.18L264.14 135.18L220.84 160.18L177.54 135.18L177.54 85.18zM264.14 -14.82L307.45 10.18L307.45 60.18L264.14 85.18L220.84 60.18L220.84 10.18zM264.14 285.18L307.45 310.18L307.45 360.18L264.14 385.18L220.84 360.18L220.84 310.18zM307.45 510.18L350.75 535.18L350.75 585.18L307.45 610.18L264.14 585.18L264.14 535.18zM394.05 60.18L437.36 85.18L437.36 135.18L394.05 160.18L350.75 135.18L350.75 85.18zM480.66 210.18L523.96 235.18L523.96 285.18L480.66 310.18L437.36 285.18L437.36 235.18zM523.96 -14.82L567.26 10.18L567.26 60.18L523.96 85.18L480.66 60.18L480.66 10.18zM523.96 285.18L567.26 310.18L567.26 360.18L523.96 385.18L480.66 360.18L480.66 310.18zM610.57 135.18L653.87 160.18L653.87 210.18L610.57 235.18L567.26 210.18L567.26 160.18zM653.87 210.18L697.17 235.18L697.17 285.18L653.87 310.18L610.57 285.18L610.57 235.18zM653.87 510.18L697.17 535.18L697.17 585.18L653.87 610.18L610.57 585.18L610.57 535.18zM697.17 -14.82L740.47 10.18L740.47 60.18L697.17 85.18L653.87 60.18L653.87 10.18zM697.17 285.18L740.47 310.18L740.47 360.18L697.17 385.18L653.87 360.18L653.87 310.18zM740.47 360.18L783.78 385.18L783.78 435.18L740.47 460.18L697.17 435.18L697.17 385.18zM697.17 435.18L740.47 460.18L740.47 510.18L697.17 535.18L653.87 510.18L653.87 460.18zM783.78 435.18L827.08 460.18L827.08 510.18L783.78 535.18L740.47 510.18L740.47 460.18zM827.08 510.18L870.38 535.18L870.38 585.18L827.08 610.18L783.78 585.18L783.78 535.18zM870.38 435.18L913.68 460.18L913.68 510.18L870.38 535.18L827.08 510.18L827.08 460.18zM956.99 135.18L1000.29 160.18L1000.29 210.18L956.99 235.18L913.68 210.18L913.68 160.18zM956.99 285.18L1000.29 310.18L1000.29 360.18L956.99 385.18L913.68 360.18L913.68 310.18zM1000.29 360.18L1043.59 385.18L1043.59 435.18L1000.29 460.18L956.99 435.18L956.99 385.18zM956.99 435.18L1000.29 460.18L1000.29 510.18L956.99 535.18L913.68 510.18L913.68 460.18zM1000.29 510.18L1043.59 535.18L1043.59 585.18L1000.29 610.18L956.99 585.18L956.99 535.18zM1043.59 135.18L1086.89 160.18L1086.89 210.18L1043.59 235.18L1000.29 210.18L1000.29 160.18zM1086.89 210.18L1130.19 235.18L1130.19 285.18L1086.89 310.18L1043.59 285.18L1043.59 235.18zM1043.59 285.18L1086.89 310.18L1086.89 360.18L1043.59 385.18L1000.29 360.18L1000.29 310.18zM1130.19 -14.82L1173.5 10.18L1173.5 60.18L1130.19 85.18L1086.89 60.18L1086.89 10.18zM1130.19 435.18L1173.5 460.18L1173.5 510.18L1130.19 535.18L1086.89 510.18L1086.89 460.18zM1173.5 510.18L1216.8 535.18L1216.8 585.18L1173.5 610.18L1130.19 585.18L1130.19 535.18zM1260.1 60.18L1303.4 85.18L1303.4 135.18L1260.1 160.18L1216.8 135.18L1216.8 85.18zM1216.8 135.18L1260.1 160.18L1260.1 210.18L1216.8 235.18L1173.5 210.18L1173.5 160.18zM1260.1 210.18L1303.4 235.18L1303.4 285.18L1260.1 310.18L1216.8 285.18L1216.8 235.18zM1260.1 360.18L1303.4 385.18L1303.4 435.18L1260.1 460.18L1216.8 435.18L1216.8 385.18zM1346.71 60.18L1390.01 85.18L1390.01 135.18L1346.71 160.18L1303.4 135.18L1303.4 85.18zM1390.01 -14.82L1433.31 10.18L1433.31 60.18L1390.01 85.18L1346.71 60.18L1346.71 10.18zM1433.31 60.18L1476.62 85.18L1476.62 135.18L1433.31 160.18L1390.01 135.18L1390.01 85.18z" stroke="rgba(0, 97, 150, 1)" stroke-width="2"></path>
    </g>
    <defs>
        <mask id="SvgjsMask1001">
            <rect width="1440" height="560" fill="#ffffff"></rect>
        </mask>
    </defs>
</svg> -->
<svg xmlns="http://www.w3.org/2000/svg" version="1.1" xmlns:xlink="http://www.w3.org/1999/xlink" xmlns:svgjs="http://svgjs.com/svgjs" width="1440" height="560" preserveAspectRatio="none" viewBox="0 0 1440 560">
    <g mask="url(&quot;#SvgjsMask1020&quot;)" fill="none">
        <path d="M -133.3833709327414,244 C -37.38,283 154.62,473 346.6166290672586,439 C 538.62,405 634.62,75 826.6166290672586,74 C 1018.62,73 1114.62,427.4 1306.6166290672586,434 C 1498.62,440.6 1759.94,122.8 1786.6166290672586,107 C 1813.29,91.2 1509.32,305.4 1440,355" stroke="rgba(0, 97, 150, 1)" stroke-width="2"></path>
        <path d="M -496.6073232476399,434 C -400.61,364.4 -208.61,93 -16.60732324763991,86 C 175.39,79 271.39,380.2 463.3926767523601,399 C 655.39,417.8 751.39,177.6 943.3926767523601,180 C 1135.39,182.4 1324.07,429.6 1423.39267675236,411 C 1522.71,392.4 1436.68,151.8 1440,87" stroke="rgba(0, 97, 150, 1)" stroke-width="2"></path>
        <path d="M -13.518956355641137,62 C 82.48,147 274.48,464.4 466.48104364435886,487 C 658.48,509.6 754.48,192.8 946.4810436443588,175 C 1138.48,157.2 1234.48,402.2 1426.4810436443588,398 C 1618.48,393.8 1903.78,164 1906.4810436443588,154 C 1909.18,144 1533.3,309.2 1440,348" stroke="rgba(0, 97, 150, 1)" stroke-width="2"></path>
    </g>
    <defs>
        <mask id="SvgjsMask1020">
            <rect width="1440" height="560" fill="#ffffff"></rect>
        </mask>
    </defs>
</svg>