<?xml version="1.0" encoding="UTF-8"?>
<!DOCTYPE svg PUBLIC "-//W3C//DTD SVG 1.1//EN" "http://www.w3.org/Graphics/SVG/1.1/DTD/svg11.dtd">
<svg xmlns="http://www.w3.org/2000/svg" version="1.1" width="384px" height="384px" style="shape-rendering:geometricPrecision; text-rendering:geometricPrecision; image-rendering:optimizeQuality; fill-rule:evenodd; clip-rule:evenodd" xmlns:xlink="http://www.w3.org/1999/xlink">
<g><path style="opacity:0.985" fill="#006196" d="M 188.5,31.5 C 189.5,31.5 190.5,31.5 191.5,31.5C 191.833,53.1769 191.5,74.8436 190.5,96.5C 163.618,108.775 136.618,120.775 109.5,132.5C 108.167,148.167 108.167,163.833 109.5,179.5C 178.741,148.629 247.908,117.629 317,86.5C 317.833,108.508 317.666,130.508 316.5,152.5C 226.919,192.459 137.252,232.126 47.5,271.5C 47.1667,212.496 47.5,153.496 48.5,94.5C 95.4359,73.8649 142.103,52.8649 188.5,31.5 Z"/></g>
<g><path style="opacity:0.978" fill="#006196" d="M 317.5,229.5 C 318.831,251.569 318.831,273.736 317.5,296C 276.5,314.333 235.5,332.667 194.5,351C 192.5,351.667 190.5,351.667 188.5,351C 147.34,332.783 106.34,314.283 65.5,295.5C 89.239,284.253 113.239,273.587 137.5,263.5C 154.929,270.713 172.263,278.213 189.5,286C 190.833,286.667 192.167,286.667 193.5,286C 235.043,267.391 276.376,248.558 317.5,229.5 Z"/></g>
</svg>
